<svg id="Layer_1" data-name="Layer 1" xmlns="http://www.w3.org/2000/svg" viewBox="0 0 337.11 337.04"><defs><style>.cls-1{fill:#168a45;}.cls-2{fill:#086434;}.cls-3{fill:#90c73f;}.cls-4{fill:#efb07b;}.cls-5{fill:#eb8c48;}</style></defs><path class="cls-1" d="M209.81,25c-.17.21-.23.31-.31.39-.68.76-1.39,1.51-2,2.29-.32.38-.57.34-1,.1-1.33-.84-1.34-.82-.46-2.08a7.57,7.57,0,0,0,.84-1.22c.42-.88.93-.81,1.59-.3a10.26,10.26,0,0,0,1,.61Z"/><path class="cls-2" d="M.13,173.74c0-1.54,0-3.08-.1-4.62s.08-3.08.12-4.62c0-.44,0-.88,0-1.31.19-2.95.37-5.89.57-8.84.22-3.32.62-6.63,1.1-9.92Q3,136.3,4.92,128.3A169,169,0,0,1,93,17.89,166.12,166.12,0,0,1,131,4.24c5.5-1.24,11-2.23,16.62-2.93,5.08-.64,10.19-1,15.31-1.19a155,155,0,0,1,17.38.3A168.43,168.43,0,0,1,333,131.42a165.09,165.09,0,0,1,2.95,17.24c.64,5.46,1,11,1.14,16.45a152.54,152.54,0,0,1-.43,15.71A168.7,168.7,0,0,1,225.1,327.29a165.11,165.11,0,0,1-27.23,7.16,180.74,180.74,0,0,1-25.1,2.53,162.72,162.72,0,0,1-18.34-.59,166.94,166.94,0,0,1-79.07-27.5,168.5,168.5,0,0,1-71-102.54A174.42,174.42,0,0,1,1.08,187C.58,182.57.36,178.16.13,173.74Zm321.22-9.23a1.52,1.52,0,0,0,.9,1.12c-.27-2.19-.21-4.29-.32-6.4a152.08,152.08,0,0,0-10.58-47.55A154.19,154.19,0,0,0,235,30a153,153,0,0,0-56.35-14.75c-4.76-.31-9.53-.37-14.3-.25a155.63,155.63,0,0,0-16.44,1.3,150.59,150.59,0,0,0-16.3,3.11A153.46,153.46,0,0,0,66.14,54a153.44,153.44,0,0,0-47,78.54c-.17.69-.05,1,.72.64l.45.09c.21,0,.41,0,.61,0q23.19,0,46.39,0c.23,0,.46,0,.69,0l1.06,0h99c1,0,1,0,.69-.92-1.12-3-2.33-5.94-3.74-8.8-3.29-6.64-7.3-12.76-13-17.57-7.56-6.35-16.19-8.75-25.94-6.94a16.42,16.42,0,0,0-4,1.18,10.86,10.86,0,0,0,1.15,0,37.44,37.44,0,0,1,10.14.18A33.61,33.61,0,0,1,148,106.3a10,10,0,0,1,4.07,5.55,3.13,3.13,0,0,1-1.22,3.49,8.85,8.85,0,0,1-3.88,1.5,40.47,40.47,0,0,1-11.63.2,30.9,30.9,0,0,1-11.59-3.51c-4-2.21-7.11-5.49-10.13-8.86-2.42-2.7-4.84-5.44-8.82-5.83.06-.12.07-.19.11-.22,1.18-.6,2.34-1.22,3.52-1.79,7.42-3.54,15.1-5.83,23.44-5.15A30.72,30.72,0,0,1,144.4,95.5a41.64,41.64,0,0,1,13.94,13.14,79.66,79.66,0,0,1,10.5,22.59c.63,2.1.64,2.09,2.8,2.1,32.54.14,65.07-.27,97.6.21.28.05.57.13.86.16a59.53,59.53,0,0,1,9.56,1.64,69.74,69.74,0,0,1,37.88,24.19c1.14,1.4,2.21,2.86,3.32,4.29ZM15.84,172.57a1.71,1.71,0,0,0-.74-1.09c-.07.09-.12.14-.12.18,0,1,.11,2,.13,3a141.36,141.36,0,0,0,2.16,20.63,150.27,150.27,0,0,0,5.94,23A153.58,153.58,0,0,0,163.42,322.07a150.29,150.29,0,0,0,27.13-1.5c5-.74,10.06-1.67,15-2.9A151.8,151.8,0,0,0,239.1,305,153.93,153.93,0,0,0,318,204.51c.17-.67,0-.92-.71-.73h-.44c-.2,0-.4,0-.61,0h-46.4l-.7,0-1,0H75.71c-2.58,0-5.15-.13-7.73-.21a1.76,1.76,0,0,0-.49-.16,46.38,46.38,0,0,1-5.63-.74,69.85,69.85,0,0,1-20.78-7.27,70.74,70.74,0,0,1-20.43-16.59c-1.51-1.78-2.84-3.7-4.31-5.51Zm270.71,1.74-.33-.44q-5.55-8-11.09-16.09a1.29,1.29,0,0,0-1.26-.69c-1.38.06-2.76,0-4.13,0-.52,0-.63.15-.63.64q0,12.75,0,25.5c0,.59.22.65.71.64,1.29,0,2.58,0,3.87,0,.7,0,.92-.13.92-.89,0-5.1,0-10.2,0-15.3v-1c.23.3.34.43.44.57q5.57,8,11.13,16.06a1.09,1.09,0,0,0,1.06.57c1.41,0,2.82,0,4.22,0,.5,0,.72-.06.72-.65q0-12.75,0-25.5c0-.5-.15-.64-.65-.63-1.37,0-2.75.06-4.13,0-.74,0-.84.23-.84.88C286.56,163.34,286.55,168.7,286.55,174.31Zm-197.2,9.56c-1.89-2.65-3.64-5.16-5.45-7.63-.39-.53-.21-.64.25-.88a8.17,8.17,0,0,0,3.34-3.25,10.86,10.86,0,0,0,1.15-6.2c-.29-5.27-3.81-8.5-8.8-8.76-3.8-.2-7.62,0-11.43-.05-.51,0-.62.15-.62.64q0,12.7,0,25.4c0,.54.09.77.71.75,1.34-.06,2.69-.06,4,0,.7,0,.81-.22.8-.85,0-1.9,0-3.81,0-5.71,0-.55.16-.71.7-.68a24.69,24.69,0,0,0,2.72,0,1.16,1.16,0,0,1,1.14.59c1.43,2.06,2.9,4.1,4.34,6.16.19.27.34.49.74.49C85,183.86,87.1,183.87,89.35,183.87Zm62.54-13.31h0c0-4.22,0-8.44,0-12.66,0-.67-.18-.83-.82-.81q-2,.07-4.05,0c-.59,0-.71.18-.71.74,0,3,0,6,0,9,0,.77-.23.9-.93.89-3.22,0-6.45,0-9.67,0-.66,0-.89-.13-.88-.85,0-3,0-6,0-9.06,0-.54-.14-.69-.68-.68-1.4,0-2.81,0-4.22,0-.58,0-.67.22-.66.72q0,12.7,0,25.4c0,.57.18.68.7.67,1.35,0,2.7,0,4.05,0,.64,0,.82-.15.82-.81-.05-3,0-6,0-9.06,0-.59.18-.72.74-.72q5,0,10,0c.61,0,.71.2.71.74,0,3,0,6,0,9,0,.65.11.92.84.88,1.28-.07,2.58,0,3.86,0,.66,0,.89-.12.88-.85C151.87,178.88,151.89,174.72,151.89,170.56Zm94.37-.16q0,6.33,0,12.66c0,.53.07.78.7.78q8.66,0,17.31,0c.49,0,.67-.12.65-.63,0-1.29-.05-2.58,0-3.87,0-.71-.16-.93-.91-.92-3.78,0-7.56,0-11.34,0-.63,0-.87-.11-.84-.8.06-1.23.06-2.46,0-3.69,0-.67.13-.89.85-.88,3.72,0,7.44,0,11.16,0,.64,0,.89-.15.86-.83,0-1.23-.06-2.46,0-3.69,0-.73-.18-.94-.92-.93-3.72,0-7.44,0-11.16,0-.67,0-.93-.13-.9-.85a31.79,31.79,0,0,0,0-3.52c0-.77.17-1,1-1,3.78,0,7.56,0,11.34,0,.63,0,.93-.08.89-.83a36.66,36.66,0,0,1,0-3.78c0-.69-.21-.81-.84-.81-5.66,0-11.31,0-17,0-.69,0-.88.17-.87.87C246.27,162,246.26,166.21,246.26,170.4ZM116.92,183.87a1.18,1.18,0,0,0,0-.28l-11-26.07a.68.68,0,0,0-.75-.42c-1.05,0-2.11.05-3.16,0-.57,0-.8.19-1,.69q-4.22,10-8.49,20l-2.59,6.08c1.89,0,3.68,0,5.46,0,.55,0,.75-.19.92-.67.39-1.06.86-2.1,1.27-3.16a.76.76,0,0,1,.81-.59q5.15,0,10.29,0a.75.75,0,0,1,.82.57c.43,1.12.92,2.21,1.35,3.32.13.34.26.53.67.53C113.26,183.86,115.08,183.87,116.92,183.87Zm56.35-18.66c0,1.41,0,2.82,0,4.22a41.11,41.11,0,0,1-.17,4.3,5.42,5.42,0,0,1-5.33,4.93c-3.26.09-5.41-1.53-6-4.64a12.18,12.18,0,0,1-.25-2.7c0-4.49,0-9,0-13.46,0-.61-.14-.79-.76-.77-1.32.06-2.64,0-4,0-.67,0-.89.14-.88.85,0,3.93,0,7.86,0,11.79a29.83,29.83,0,0,0,.33,5.51c1.41,7.09,7.63,10.12,14.12,8.68,4.91-1.09,8-5,8.29-10.31s.08-10.61.14-15.91c0-.46-.14-.61-.6-.6-1.41,0-2.82,0-4.22,0-.58,0-.74.16-.73.74C173.29,160.29,173.27,162.75,173.27,165.21Zm44.84-8.1c-.08.28.07.41.15.56q4.52,8.09,9.06,16.16a2.71,2.71,0,0,1,.37,1.41c0,2.64,0,5.27,0,7.91,0,.56.14.75.73.73,1.5,0,3,0,4.48,0,.57,0,.74-.13.74-.71,0-2.67,0-5.34,0-8a2,2,0,0,1,.25-1.08q4.23-7.5,8.44-15a8.58,8.58,0,0,0,1-2c-2,0-3.88,0-5.78,0a.71.71,0,0,0-.73.45c-.88,1.61-1.78,3.22-2.67,4.83l-3.43,6.18c-.18-.3-.3-.5-.41-.7-1.89-3.39-3.77-6.78-5.67-10.16-.14-.25-.21-.6-.65-.6C222,157.12,220,157.11,218.11,157.11Zm-24,11.46c-1.92-3.46-3.84-6.82-5.67-10.23a2,2,0,0,0-2.15-1.26c-1.58.11-3.17,0-4.85,0,.11.24.15.35.2.45,3,5.41,6.06,10.83,9.11,16.23a2.82,2.82,0,0,1,.39,1.49c0,2.64,0,5.28,0,7.91,0,.53.13.71.68.69,1.49,0,3,0,4.48,0,.61,0,.79-.13.78-.76,0-2.66,0-5.33,0-8a2,2,0,0,1,.23-1q3.56-6.28,7.07-12.58l2.49-4.44c-2,0-3.83,0-5.66,0a1,1,0,0,0-1.06.65C198.12,161.32,196.12,164.88,194.07,168.57Zm-140-11.46c-3.34,0-6.68,0-10,0-.63,0-.79.18-.77.79,0,1.34,0,2.69,0,4,0,.54.14.69.68.68,2.14,0,4.28,0,6.42,0,.75,0,1,.14,1,.94,0,6.53,0,13.06,0,19.59,0,.61.14.81.77.78,1.32,0,2.64-.06,3.95,0,.74,0,.91-.2.9-.92,0-6.47,0-12.95,0-19.42,0-.83.23-1,1-1,2.08.05,4.16,0,6.24,0,.52,0,.71-.12.7-.68-.05-1.31-.05-2.63,0-3.95,0-.67-.14-.89-.86-.88C60.73,157.13,57.42,157.11,54.11,157.11Zm201.07-6.84c-.5.13-1.08-.24-1.55.29-1,1.15-2.11,2.27-3.16,3.41-.11.12-.3.21-.21.43a14.62,14.62,0,0,0,2.33,1.5,1.86,1.86,0,0,0,.5-.32,19.13,19.13,0,0,0,1.54-1.44c.44-.5.79-.44,1.19,0a5.86,5.86,0,0,0,.44.42c1.63,1.5,1.62,1.48,3.44.17.45-.32.52-.51.11-.91-.87-.87-1.73-1.75-2.52-2.69A2,2,0,0,0,255.18,150.27Zm4.52-6.5c-.27,0-.33.21-.42.38-.77,1.43-1.53,2.88-2.32,4.3-.24.43-.14.6.28.78a20.8,20.8,0,0,1,2,.93c.44.25.66.1.91-.27.71-1.07,1.44-2.12,2.17-3.18.9-1.31.9-1.31-.54-2ZM105.4,153.94c-.05-.09-.1-.2-.15-.3-.74-1.39-1.48-2.78-2.19-4.18-.22-.42-.42-.56-.88-.32-.83.43-1.68.82-2.54,1.17-.55.22-.46.46-.19.84.55.76,1.06,1.54,1.6,2.3s.86,1.75,1.51,2,1.53-.65,2.35-1a1.77,1.77,0,0,0,.31-.15C105.35,154.22,105.45,154.13,105.4,153.94Z"/><path class="cls-3" d="M68,133.3a104.45,104.45,0,0,1,9-19.34A106.67,106.67,0,0,1,202.5,67.51a105,105,0,0,1,30.76,16.37,106.89,106.89,0,0,1,36,49.66c-32.53-.48-65.06-.07-97.6-.21-2.16,0-2.17,0-2.8-2.1a79.66,79.66,0,0,0-10.5-22.59A41.64,41.64,0,0,0,144.4,95.5a30.72,30.72,0,0,0-12.57-3.82c-8.34-.68-16,1.61-23.44,5.15-1.18.57-2.34,1.19-3.52,1.79,0,0-.05.1-.11.22,4,.39,6.4,3.13,8.82,5.83,3,3.37,6.1,6.65,10.13,8.86A30.9,30.9,0,0,0,135.3,117a40.47,40.47,0,0,0,11.63-.2,8.85,8.85,0,0,0,3.88-1.5,3.13,3.13,0,0,0,1.22-3.49A10,10,0,0,0,148,106.3a33.61,33.61,0,0,0-14.6-5.84,37.44,37.44,0,0,0-10.14-.18,10.86,10.86,0,0,1-1.15,0,16.42,16.42,0,0,1,4-1.18c9.75-1.81,18.38.59,25.94,6.94,5.74,4.81,9.75,10.93,13,17.57,1.41,2.86,2.62,5.81,3.74,8.8.35.92.35.92-.69.92h-99ZM192.4,83.56l0,0c-.23.11-.46.23-.7.32a33,33,0,0,0-8.57,4.37,17.52,17.52,0,0,0-5.27,5.57c-1.88,3.39.19,6.28,3.12,6.89a7.91,7.91,0,0,0,3.32,0,15.79,15.79,0,0,0,8.74-5.83,23.22,23.22,0,0,0,4.1-8.19c.9-3,2.43-5.5,5.56-6.74a5.71,5.71,0,0,0-.66-.2,42,42,0,0,0-12.76-.18c-9.84,1.61-16.07,7.42-19.24,16.72a57.58,57.58,0,0,0-1.7,6.44,56.58,56.58,0,0,0-.58-8.13,1.22,1.22,0,0,1,.44-1A24.27,24.27,0,0,0,171.55,89c1.8-3.38,2-7,1.65-10.81a16.49,16.49,0,0,0-4.71,5.32,7.83,7.83,0,0,0-.89-3.1c-.14-.24-.27-.62-.57-.61s-.39.39-.52.64a10.34,10.34,0,0,0-1.16,5.16c-.32-.64-.52-1-.74-1.46a19.21,19.21,0,0,0-10.44-9.42,25.13,25.13,0,0,0-7.9-1.45,34.68,34.68,0,0,0-7.33.56l.45.35A15.5,15.5,0,0,1,145.12,81a13.17,13.17,0,0,0,7.68,7.63,10.23,10.23,0,0,0,6.23.95c1.55-.34,2.08-1.39,1.37-2.8-.12-.23-.27-.45-.41-.67a19,19,0,0,0-7.33-6.4c-.88-.46-1.8-.87-2.69-1.3a.81.81,0,0,1,.53,0A21.11,21.11,0,0,1,165.12,92a46.1,46.1,0,0,1,2.55,17.67,82.91,82.91,0,0,0,.35,10.69,36.08,36.08,0,0,0,.78,5.26c.12-2.33.08-4.67.19-7a81,81,0,0,1,1.47-12.53,33.61,33.61,0,0,1,3.46-10.35c2.79-4.82,7.05-8,12.07-10.2A22.44,22.44,0,0,1,192.4,83.56Z"/><path class="cls-3" d="M269.13,203.77a103.54,103.54,0,0,1-9.44,20,105.19,105.19,0,0,1-13,17.21,106.41,106.41,0,0,1-25.88,20.42,105.29,105.29,0,0,1-29.33,11.18,110.37,110.37,0,0,1-13.66,2.07c-3.21.3-6.43.42-9.65.41a106.14,106.14,0,0,1-67.92-24.81,106.62,106.62,0,0,1-32-45.7c-.12-.32-.21-.67-.31-1,2.58.08,5.15.21,7.73.21H268.16Zm-60.71,22.29a6.58,6.58,0,0,1-2.59,2,23.43,23.43,0,0,1-3.69,1.38,98.28,98.28,0,0,1-21.08,3.3,135.88,135.88,0,0,1-14.13.25c-3.48-.14-7-.28-10.43-.56a88.1,88.1,0,0,1-14.63-2.15c-3.13-.79-6.32-1.53-8.58-4.32a24.88,24.88,0,0,0,3.85,13.21,34.37,34.37,0,0,0,15.61,13.29c1.1.5,2.23.93,3.42,1.43-.65.27-1.2.46-1.71.73s-1,.54-.93,1.24.17,1.35,1,1.68,1.81.81,2.76,1.09a47.11,47.11,0,0,0,11.62,1.54,62.77,62.77,0,0,0,13.55-.86,17.94,17.94,0,0,0,5.67-1.74,2.07,2.07,0,0,0,.94-1.86c.07-.64-.55-.92-1.05-1.14s-1.29-.52-2-.81a44.08,44.08,0,0,0,12.74-7.87,1,1,0,0,1,.69-.31c.76,0,1.52-.09,2.28-.14a41.54,41.54,0,0,0,10.81-2.08c5.73-2,10-8.23,9.89-13.1A2.08,2.08,0,0,0,220.9,228a5.17,5.17,0,0,0-1.79-.39c-3.05,0-6.09,0-9.14,0C208.52,227.61,208.52,227.61,208.42,226.06Zm-37.49-8.62c-2.31.06-4.62,0-6.93.12a124.42,124.42,0,0,0-20.38,2.19,26.87,26.87,0,0,0-8.36,2.8c-2.3,1.34-2.34,2.95-.12,4.41a18,18,0,0,0,5.28,2.11,91.49,91.49,0,0,0,19.06,2.75c4.87.29,9.76.47,14.65.31,4.57-.15,9.13-.32,13.68-.76a81.74,81.74,0,0,0,13.63-2.32,15.49,15.49,0,0,0,5.9-2.6,1.92,1.92,0,0,0,.1-3.21,5.32,5.32,0,0,0-.84-.64,16.55,16.55,0,0,0-4.27-1.8,91.88,91.88,0,0,0-19.37-3C179,217.53,175,217.38,170.93,217.44Z"/><path class="cls-4" d="M317.28,203.78c-.78,3.63-1.83,7.19-2.94,10.73a150.63,150.63,0,0,1-11,26,153.54,153.54,0,0,1-80.86,71A151.11,151.11,0,0,1,199,318.3a147,147,0,0,1-17.1,2.46c-3.47.29-6.94.44-10.43.54a141.59,141.59,0,0,1-19.1-.8,153.86,153.86,0,0,1-98.46-51A154.06,154.06,0,0,1,31,235a151.55,151.55,0,0,1-11.63-33.51,153.78,153.78,0,0,1-3.13-21.25c-.19-2.53-.41-5.07-.35-7.62.17.23.34.47.5.71a50.24,50.24,0,0,0,.26,6.49c.25,3.47.64,6.92,1.13,10.37A150.64,150.64,0,0,0,29,229.57a154.49,154.49,0,0,0,11.28,21,149,149,0,0,0,13.65,18.16,157.1,157.1,0,0,0,14.74,14.68,151.81,151.81,0,0,0,78.59,36c4.93.7,9.88,1.14,14.86,1.35a152.88,152.88,0,0,0,20.19-.46A151.07,151.07,0,0,0,248,298.51a155.22,155.22,0,0,0,14.83-10.33,148.33,148.33,0,0,0,16.93-15.55,152.28,152.28,0,0,0,21.31-28.9,149.31,149.31,0,0,0,15-37.15c.24-.94.47-1.87.7-2.81Z"/><path class="cls-4" d="M19.89,133.22a139.28,139.28,0,0,1,5.19-17.3A151.32,151.32,0,0,1,41.25,84.06a149.48,149.48,0,0,1,10.54-14c3.08-3.64,6.3-7.16,9.71-10.5a153.54,153.54,0,0,1,54.11-34.4A151.78,151.78,0,0,1,148,17.07c4.88-.66,9.77-1.06,14.69-1.27q5.36-.24,10.71-.07a156.19,156.19,0,0,1,19.3,1.85A154.45,154.45,0,0,1,215.44,23a150.48,150.48,0,0,1,18.42,7.31,153.33,153.33,0,0,1,25,14.92,156.35,156.35,0,0,1,15.94,13.47,153.41,153.41,0,0,1,39.78,64.45,150.45,150.45,0,0,1,5.73,26.55c.48,3.89.83,7.8,1,11.72,0,1,.18,2,.11,3.07l-.49-.69a112.47,112.47,0,0,0-.77-11.89,148.22,148.22,0,0,0-2.74-16.61,152,152,0,0,0-29.56-61.67c-2.88-3.58-5.88-7.06-9.08-10.36s-6.59-6.65-10.13-9.72a155.59,155.59,0,0,0-13.5-10.48,153.76,153.76,0,0,0-19.51-11.46A151.3,151.3,0,0,0,183.16,16.8c-3.4-.33-6.83-.48-10.25-.62a141.39,141.39,0,0,0-14.56.27,146,146,0,0,0-19.65,2.6A152.83,152.83,0,0,0,56.24,65.6,156.92,156.92,0,0,0,41.51,84.46,152,152,0,0,0,23.12,123c-1,3.15-1.89,6.34-2.66,9.55-.06.26-.08.52-.12.78Z"/><path class="cls-5" d="M272.4,248.18l-9.18-7.59c.67-.82,1.37-1.61,2-2.45.3-.38.47-.35.82-.06q6.79,5.63,13.63,11.2c.36.3.31.45,0,.75a9.42,9.42,0,0,0-1.28,1.55,1.86,1.86,0,0,1-2.09.84c-4.31-.41-8.62-.77-12.94-1.14-.07,0-.15,0-.39.11,1,.85,1.9,1.64,2.83,2.41,2,1.62,3.93,3.24,5.92,4.83.38.3.48.5.14.9-.6.68-1.17,1.38-1.71,2.11-.28.37-.46.19-.7,0q-4.43-3.66-8.86-7.31l-3.72-3a1.09,1.09,0,0,0,.21,1,3.26,3.26,0,0,1-.06,3.42c-.32.49-.13.66.31.91a9.74,9.74,0,0,1,5.21,8.5,9.13,9.13,0,0,1-7.08,9.09A9.75,9.75,0,0,1,245.24,270a9.33,9.33,0,0,1,.37-11.07,9,9,0,0,1,7.85-3.52c.51,0,1,.18,1.36-.47a1.37,1.37,0,0,0-.16-1.71c-.83-.79-.54-1.29.25-1.8a4.5,4.5,0,0,0,.65-.59c.11-.1.28-.24.26-.33-.33-1.62,1.3-2.09,1.87-3.18.16-.29.54-.16.82-.14l8.57.76,5.22.45Zm-13.62,16.94a6,6,0,0,0-6-6,5.54,5.54,0,0,0-5.48,5.58,6.17,6.17,0,0,0,6,6A5.51,5.51,0,0,0,258.78,265.12Z"/><path class="cls-5" d="M110.33,285.7c1.11-2,2.13-3.9,3.14-5.77.79-1.46,1.6-2.92,2.37-4.4.21-.4.38-.49.79-.24.72.44,1.48.82,2.24,1.2.36.19.51.36.27.8q-4.23,7.74-8.4,15.5c-.24.44-.46.4-.81.17-.89-.62-2.26-.74-2.72-1.74a10.65,10.65,0,0,1-.42-3.19c-.38-3.46-.74-6.92-1.12-10.38a8.43,8.43,0,0,0-.2-.9c-.58,1-1.08,1.89-1.55,2.77-1.3,2.42-2.61,4.83-3.88,7.27-.27.51-.49.63-1,.31-.69-.44-1.42-.81-2.15-1.19-.39-.19-.48-.37-.24-.79q4.2-7.69,8.35-15.42c.25-.47.46-.51.84-.23l.08,0c2.76,1.38,2.74,1.39,3.11,5.28.33,3.49.73,7,1.11,10.47C110.15,285.34,110.21,285.41,110.33,285.7Z"/><path class="cls-5" d="M289,233.65a9.36,9.36,0,0,1-5.56,8.22,9.13,9.13,0,0,1-10-1.26,8.89,8.89,0,0,1-3.41-10,10.43,10.43,0,0,1,6.8-7.16c.32-.12.55-.1.71.26.33.78.68,1.55,1.05,2.32.27.57-.27.57-.52.68a7.72,7.72,0,0,0-4.07,3.82c-1.77,3.61.38,7.53,4.58,8.39a5,5,0,0,0,5.23-1.89,5.44,5.44,0,0,0,.92-6c-.17-.37-.32-.85-.78-.88s-.4.52-.63.76a3,3,0,0,0-.18.3c-.47.73-.78,2.06-1.39,2.07-.82,0-1.66-.85-2.49-1.33-.31-.18-.36-.34-.15-.68q1.8-3,3.55-6.06c.16-.28.28-.47.66-.27A9.73,9.73,0,0,1,289,233.65Z"/><path class="cls-5" d="M178.76,300.17c0,1.61,0,3.22,0,4.84,0,.63-.2.81-.8.78a18.72,18.72,0,0,0-2.37,0c-.52.05-.58-.14-.58-.57,0-2,0-4.05,0-6.07,0-.61-.16-.81-.79-.79q-3.42.12-6.85.13c-.52,0-.64.2-.63.67,0,2,0,3.93.07,5.89,0,.66-.12,1-.86.91a11.32,11.32,0,0,0-2,.09c-.63.06-.89-.13-.88-.82,0-2.63,0-5.27-.06-7.91,0-3.07-.07-6.14-.15-9.22,0-.65.15-.89.82-.84a16.51,16.51,0,0,0,2.11,0c.61,0,.82.16.81.79,0,2,0,3.92,0,5.89,0,.58.17.74.75.73,2.28-.05,4.57-.07,6.85-.05.6,0,.66-.24.66-.72,0-2,0-4-.06-6,0-.65.17-.89.84-.84a14.86,14.86,0,0,0,2.11,0c.62,0,.79.17.79.78,0,4.1,0,8.2,0,12.3Z"/><path class="cls-5" d="M242.58,278.36c.1-1.92-1-3.14-1.81-4.47-1.43-2.31-2.92-4.58-4.4-6.86-.31-.48-.27-.72.26-1a17.13,17.13,0,0,0,1.77-1.13c1.12-.74,1.37-1.58.65-2.67-.39-.6-.19-.81.31-1.13,1.73-1.12,1.83-1.09,2.46.89a3.24,3.24,0,0,1-.81,3.55c-.62.6-.53,1-.12,1.62,1.48,2.28,2.93,4.58,4.32,6.91a7.33,7.33,0,0,1,.15,7.92,7.92,7.92,0,0,1-7.16,4,7.31,7.31,0,0,1-6-3.23c-2.19-3-4.06-6.22-6.09-9.33-.23-.34-.23-.54.14-.77.7-.42,1.4-.85,2.06-1.34.51-.37.77-.24,1.08.26q2.51,4,5.06,7.91a6,6,0,0,0,2.09,2.2A4.07,4.07,0,0,0,242.58,278.36Z"/><path class="cls-5" d="M200.6,302.59c-1.27.2-2.42.37-3.57.59-.39.08-.53-.15-.68-.39a9.88,9.88,0,0,1-.8-1.36c-.32-.78-.84-.89-1.6-.75-2.16.4-4.32.75-6.48,1.09a.92.92,0,0,0-.9.85c-.49,2.42-.52,2.41-2.95,2.78-1.57.24-1.57.24-1.19-1.31,1.4-5.79,2.81-11.58,4.19-17.38a1.21,1.21,0,0,1,1-1c1.59-.52,2.4,0,3.27,1.45,3,5,6.18,9.79,9.29,14.67C200.3,302,200.41,302.24,200.6,302.59Zm-11.39-11.34c-.53,2.23-1,4.22-1.47,6.2-.14.54,0,.66.54.56,1.35-.25,2.7-.48,4.05-.68.61-.08.49-.31.25-.67-.64-1-1.27-2-1.9-3.05Z"/><path class="cls-5" d="M49.39,235.85a7.74,7.74,0,0,1,3.79-7c3-1.94,6.1-3.71,9.13-5.58.39-.24.53-.17.73.18.43.76.87,1.53,1.36,2.25.28.4.16.56-.2.77q-4.19,2.5-8.35,5a6.2,6.2,0,0,0-2,1.77,4,4,0,0,0,.39,5,3.76,3.76,0,0,0,4.58,1.15,52.93,52.93,0,0,0,6-3.38c1.26-.74,2.52-1.49,3.75-2.27.41-.25.63-.26.88.2.4.75.85,1.47,1.32,2.18.23.36.16.58-.19.78-3.28,1.91-6.41,4.12-9.84,5.75C54.08,245.76,49.26,239.9,49.39,235.85Z"/><path class="cls-5" d="M143.63,295.52a9.12,9.12,0,0,1,5.52-8.59,9.68,9.68,0,0,1,10.74,1.58c1.71,1.39,1.68,1.43.15,3.06-.86.92-.84.89-1.81.1-2.24-1.84-4.75-2.56-7.51-1.38a5.9,5.9,0,0,0-3.26,6.79,5.69,5.69,0,0,0,5.66,4.46,7.77,7.77,0,0,0,4.41-1.23c.69-.45,1.05-.36,1.3.41a4.16,4.16,0,0,0,.35.7c.8,1.54.8,1.55-.71,2.44-5.45,3.17-13.15.9-14.66-6.15A17.39,17.39,0,0,1,143.63,295.52Z"/><path class="cls-5" d="M82.62,250.67l-7.87,1.41-5.18.92a2.23,2.23,0,0,0-1.17.53c-1.29,1.1-2.63,2.15-3.92,3.25-.52.45-.83.43-1.22-.17a18.75,18.75,0,0,0-1.55-1.91c-.33-.37-.29-.6.1-.91,1.21-1,2.37-2,3.61-2.92a4.16,4.16,0,0,0,1.44-2Q69,243.41,71.09,238c.1-.27.23-.53.38-.87.83,1,1.6,2,2.39,2.9.27.33.16.62,0,1q-1.41,3.54-2.79,7.09c-.1.26-.37.55-.11.8s.5.06.76,0c2.5-.47,5-.91,7.5-1.41a.92.92,0,0,1,1.1.41C81,248.8,81.78,249.65,82.62,250.67Z"/><path class="cls-5" d="M209,299.61c.08.34-.16.4-.39.46-.9.27-1.8.5-2.69.8-.62.2-.52-.31-.6-.57-.89-3-1.76-6-2.63-9-.4-1.35-.81-2.68-1.17-4-.15-.53-.37-.64-.88-.48-1.39.43-2.81.8-4.2,1.25-.47.15-.62,0-.73-.4-.22-.82-.47-1.63-.72-2.44-.12-.4-.08-.62.4-.76,4.38-1.26,8.76-2.52,13.12-3.82.61-.19.81,0,.93.55a16.46,16.46,0,0,0,.63,2.18c.18.5.16.69-.42.83-1.33.33-2.62.82-4,1.15-.72.17-.76.47-.58,1.09,1.26,4.23,2.49,8.46,3.72,12.7C208.85,299.27,208.91,299.44,209,299.61Z"/><path class="cls-5" d="M98.65,264.79l-.73.88c-1.53,1.92-1.52,1.92-3.34.35-.65-.55-1.34-1-2-1.63-.41-.38-.64-.32-1,.09-1.81,2.22-3.65,4.41-5.48,6.62q-1.65,2-3.29,4c-.27.32-.45.45-.83.1a20.15,20.15,0,0,0-1.88-1.58c-.48-.36-.39-.63,0-1,2.89-3.45,5.75-6.94,8.66-10.38.42-.5.34-.73-.12-1.1-1.15-.9-2.25-1.87-3.39-2.77-.35-.28-.33-.46-.06-.77.55-.61,1.08-1.23,1.57-1.88.31-.4.53-.5,1-.13,3.39,2.84,6.8,5.65,10.19,8.48C98.21,264.24,98.53,264.42,98.65,264.79Z"/><path class="cls-5" d="M235,289.1l-9.77,4.81c-.45.22-.66.23-.91-.3q-3.83-7.87-7.72-15.72c-.23-.46-.1-.6.27-.77a19.26,19.26,0,0,0,2.28-1.12c.57-.35.76-.17,1,.35,1.86,3.84,3.75,7.67,5.62,11.5.66,1.34.65,1.34,2,.69s2.47-1.19,3.69-1.81a.78.78,0,0,1,1.08.11C233.3,287.6,234.12,288.3,235,289.1Z"/><path class="cls-5" d="M103.18,267.65l-.33.48q-4.93,7.2-9.88,14.4c-.23.35-.38.54-.79.24-.81-.59-1.62-1.16-2.46-1.7-.37-.25-.33-.44-.1-.76q5-7.23,9.92-14.48c.23-.35.42-.5.82-.2.82.61,1.69,1.16,2.53,1.75A1.86,1.86,0,0,1,103.18,267.65Z"/><path class="cls-5" d="M124.3,289.05l1.5.49c2.86.92,5.71,1.84,8.59,2.72.63.2.74.46.49,1a14.23,14.23,0,0,0-.63,1.91c-.11.45-.29.57-.73.43q-5-1.65-10.07-3.25c-.38-.13-.5-.25-.34-.67.29-.73.49-1.49.74-2.24C123.92,289.27,124,289,124.3,289.05Z"/><path class="cls-5" d="M188.05,280.94c.35-.08.6.17.85.36.68.5,1.32,1.06,2,1.54.43.29.34.45,0,.76-.92.91-.89.9-2,.23s-.9-.88-1.82.3-.82,1-2,.44c-.46-.23-.45-.43-.19-.79.43-.59.83-1.21,1.23-1.82A1.85,1.85,0,0,1,188.05,280.94Z"/><path class="cls-5" d="M106.52,264.22a.31.31,0,0,1-.26.38c-1,.4-2.07.79-3.09,1.2-.49.2-.53-.23-.68-.46-.84-1.27-.83-1.28.49-2l1.78-.94c.18-.1.44-.29.55-.13C105.76,263,106.15,263.63,106.52,264.22Z"/><path class="cls-5" d="M192.29,277c-.06.13-.13.32-.22.5-.38.82-.79,1.63-1.15,2.46-.17.41-.34.46-.78.34-1.6-.47-1.61-.45-1-2a5.71,5.71,0,0,1,.21-.58c.24-.52.2-1.44.66-1.52a5.47,5.47,0,0,1,2.09.47A.27.27,0,0,1,192.29,277Z"/><path class="cls-5" d="M261,275.65a1.75,1.75,0,0,1-1.75-1.71,1.72,1.72,0,0,1,1.7-1.76,1.88,1.88,0,0,1,1.76,1.74A1.69,1.69,0,0,1,261,275.65Z"/><path class="cls-1" d="M118.71,59.75c.19-4,.38-7.92.56-11.81.12-2.48.23-5,.35-7.45,0-.09,0-.22,0-.26a9.91,9.91,0,0,1,2.52-1.09c.38-.18.57.19.78.41,4.34,4.61,8.66,9.22,13,13.81.42.45.36.65-.2.78l-.34.11c-.9.33-1.82,1-2.69.91s-1.34-1.27-2-1.93a.71.71,0,0,0-.9-.21c-2.21.83-4.42,1.64-6.64,2.45a.7.7,0,0,0-.55.75c0,.92.35,2.06-.21,2.71s-1.61.7-2.45,1a40.44,40.44,0,0,0-4,2.09,1,1,0,0,1-1,0c-1.52-.8-3.07-1.55-4.6-2.34a.74.74,0,0,0-.87,0,10.06,10.06,0,0,1-1.61.88c-.61.26-.58.56-.29,1.07.62,1.06,1.16,2.16,1.77,3.23.23.4.3.63-.21.84s-.93.49-1.4.73c-1.39.75-1.39.75-2.12-.6-2.6-4.83-5.19-9.67-7.82-14.49-.3-.54-.24-.75.31-1,2.07-1.07,4.11-2.21,6.18-3.27a7,7,0,0,1,5.76-.57c3,1.09,6.06,6.29,3.47,10-.24.36-.23.52.18.71C115.28,58.05,116.92,58.87,118.71,59.75Zm-11-9.76a2.34,2.34,0,0,0-.53,0c-1.65.36-3,1.39-4.47,2.11-.26.13-.14.34,0,.53.85,1.56,1.7,3.12,2.53,4.68.15.28.33.34.56.2a24.08,24.08,0,0,0,4-2.37,2.55,2.55,0,0,0,.71-3.09A2.85,2.85,0,0,0,107.67,50ZM122.8,51.8l5-1.84-4.24-4.59c-.12-.13-.22-.3-.41-.29s-.16.14-.16.26C123,47.47,122.68,49.58,122.8,51.8Z"/><path class="cls-1" d="M283.9,118.69l6.72-3.17c1.19-.56,2.39-1.09,3.56-1.69.44-.22.61-.12.79.28.36.8.72,1.59,1.13,2.36.24.45,0,.6-.32.78q-7.95,3.73-15.88,7.51c-.43.2-.64.15-.77-.29a.59.59,0,0,0,0-.08c-.43-.92-1.22-1.86-1.19-2.76s.89-1.79,1.39-2.68l5.34-9.25a1.3,1.3,0,0,0,.3-.71c-.33-.16-.55.09-.8.21-3.11,1.46-6.22,2.92-9.31,4.41-.56.28-.83.2-1-.38a8,8,0,0,0-.47-1c-.79-1.71-.79-1.7.87-2.48,4.82-2.28,9.64-4.54,14.45-6.84.62-.3.84-.21,1.24.39,1.23,1.84,1,3.37-.22,5.19-2,3-3.68,6.22-5.5,9.35A1.3,1.3,0,0,0,283.9,118.69Z"/><path class="cls-1" d="M215.39,46.37c-.39.91-.77,1.75-1.12,2.59-1.08,2.55-2.16,5.1-3.21,7.67-.24.59-.47.84-1.11.47a6.41,6.41,0,0,0-1.68-.72c-1-.24-.9-.7-.57-1.49q3.31-7.71,6.52-15.46c.27-.64.51-.74,1.14-.47,2.73,1.18,2.7,1.17,3.28,4.08.74,3.75,1.54,7.48,2.32,11.22,0,.05.06.08.13.16.36-.22.39-.62.53-.94,1.32-3.11,2.64-6.23,3.93-9.35.22-.54.43-.74,1-.43a15.88,15.88,0,0,0,2.09.87c.53.19.63.41.39,1-1.83,4.26-3.61,8.54-5.41,12.81-.44,1-.91,2.09-1.3,3.16-.22.59-.53.7-1,.38-.91-.6-2.35-.43-2.81-1.62a20.24,20.24,0,0,1-.74-3.32q-1.08-5.14-2.15-10.28C215.6,46.59,215.52,46.53,215.39,46.37Z"/><path class="cls-1" d="M226.85,60.35c-.42-4.73,3.47-9.47,8.15-10.21s9.57,2.33,11.17,7.36c.14.42,0,.57-.34.71-.71.28-1.42.56-2.1.89-.47.23-.67.16-.87-.36a7.83,7.83,0,0,0-3.12-3.9c-4.22-2.79-8.49.35-9.15,4.36-.69,4.21,3.68,7.09,6.92,6.28l.34-.1c.56-.23,1.34-.41,1.44-1s-.76-.58-1.16-.9-.59-.37-.89-.56c-1.2-.76-1.22-.77-.46-1.92.38-.57.57-1.53,1.2-1.6s1.14.6,1.71,1l4.62,2.85c.22.14.57.21.32.64-1.77,3-4.49,5.55-8.47,5.48A9.39,9.39,0,0,1,226.85,60.35Z"/><path class="cls-1" d="M284.36,100.78c-.24-.09-.32-.32-.44-.51-1.43-2.17-2.88-4.34-4.28-6.53-.34-.53-.59-.58-1.08-.2a15.46,15.46,0,0,1-2.06,1.34c-.48.27-.48.49-.19.93,1.43,2.13,2.81,4.3,4.23,6.44.28.43.38.69-.17,1a14.37,14.37,0,0,0-2,1.3c-.43.32-.61.21-.87-.19-1.33-2.06-2.73-4.08-4-6.17-.48-.79-.84-.82-1.51-.28a12.49,12.49,0,0,1-1.83,1.19c-.47.26-.43.49-.16.89,1.4,2.09,2.73,4.22,4.17,6.28.5.73.44,1.08-.34,1.47a10.51,10.51,0,0,0-1.75,1.14c-.36.27-.54.19-.76-.14-2.19-3.35-4.38-6.71-6.6-10-.4-.61.1-.69.4-.89l12.23-8c.71-.47,1.45-.88,2.12-1.41s.85-.23,1.19.29c1.9,2.95,3.84,5.87,5.75,8.81.9,1.37.9,1.37-.45,2.26l-1.24.82Z"/><path class="cls-1" d="M173.7,40.79c0,2.69,0,5.38,0,8.08,0,.6-.14.84-.77.78a17.22,17.22,0,0,0-1.76,0c-1.26,0-1.24,0-1.26-1.22,0-1.84-.07-3.69-.08-5.53,0-.48-.13-.66-.64-.65q-3.51.12-7,.17c-.51,0-.55.23-.54.64.05,2,.06,4,.12,6.06,0,.57-.13.76-.72.74a15.41,15.41,0,0,0-2.45.11c-.55.07-.62-.13-.62-.6,0-1.94-.05-3.87-.09-5.8-.08-3.89-.16-7.78-.27-11.67,0-.6.16-.77.72-.73s1.11,0,1.67,0c1.37,0,1.37,0,1.4,1.39,0,1.76.08,3.52.08,5.27,0,.56.15.76.74.74,2.31-.09,4.63-.15,6.94-.17.56,0,.6-.25.59-.69-.07-2-.09-4-.19-6,0-.63.2-.81.76-.82q1.19,0,2.37-.09c.44,0,.61.09.62.57,0,2.28.1,4.56.15,6.84,0,.85,0,1.7,0,2.55Z"/><path class="cls-1" d="M193,51.84c-1.32-.16-2.5-.32-3.69-.44-.31,0-.36-.18-.42-.43a13.48,13.48,0,0,1-.42-1.6,1.45,1.45,0,0,0-1.54-1.45c-2-.18-4.06-.46-6.08-.75a1,1,0,0,0-1.28.7,18.42,18.42,0,0,1-.92,1.69c-.15.27-.31.48-.68.42l-3.66-.5c.7-1.22,1.36-2.37,2-3.51,2.58-4.44,5.17-8.87,7.73-13.32.34-.58.67-.67,1.36-.69,1.77-.07,2.27.84,2.68,2.37,1.5,5.66,3.16,11.27,4.76,16.89C192.9,51.39,192.93,51.56,193,51.84Zm-7.68-14.23L182,43.44c-.13.23,0,.34.19.36l4.95.59C186.55,42.15,186,40,185.31,37.61Z"/><path class="cls-1" d="M53.62,94a6.2,6.2,0,0,1,9.15-5.64,31.68,31.68,0,0,1,7.32,5.09,5.69,5.69,0,0,1,1.75,5.91,6.25,6.25,0,0,1-4.62,4.71,5.68,5.68,0,0,1-4.18-.47,37.78,37.78,0,0,1-7.36-5A5.57,5.57,0,0,1,53.62,94ZM60,91.41a2.59,2.59,0,0,0-2.42,1.66A2.06,2.06,0,0,0,58,95.64a24.42,24.42,0,0,0,6.5,4.53,2.46,2.46,0,0,0,1.79.21,2.52,2.52,0,0,0,1.06-4.33,23.77,23.77,0,0,0-6.49-4.4A5.33,5.33,0,0,0,60,91.41Z"/><path class="cls-1" d="M51.79,100.78a5.74,5.74,0,0,1,2.39.48,38.62,38.62,0,0,1,7.63,4.09,6.27,6.27,0,0,1-5.74,11,35.2,35.2,0,0,1-8-4.19,5.63,5.63,0,0,1-2.47-6,6.23,6.23,0,0,1,4.75-5.27A8.1,8.1,0,0,1,51.79,100.78ZM58,113a2.58,2.58,0,0,0,2.48-1.76,2.42,2.42,0,0,0-1-2.92,27.14,27.14,0,0,0-6.72-3.53A2.33,2.33,0,0,0,49.64,106a2.3,2.3,0,0,0,.88,3.26,30.77,30.77,0,0,0,5.89,3.26A4.65,4.65,0,0,0,58,113Z"/><path class="cls-1" d="M242.87,72.68c-.05-2.43,1.21-4.29,2.67-6,2-2.35,4-4.66,6-7,.38-.46.64-.53,1.09-.09a20.31,20.31,0,0,0,1.8,1.54c.45.35.43.59.06,1-2.21,2.53-4.43,5.06-6.57,7.66s-1.23,6.13,2,7a4,4,0,0,0,4.1-1.37c2-2,3.76-4.26,5.63-6.39.11-.13.22-.28.34-.4.5-.48.82-1.45,1.41-1.42s1.09.79,1.62,1.25c1.18,1,1.19,1,.17,2.18-2.23,2.51-4.29,5.19-6.67,7.57-2.15,2.15-4.72,3.1-7.68,2.18A8.23,8.23,0,0,1,243,74.07,8,8,0,0,1,242.87,72.68Z"/><path class="cls-1" d="M266.55,71.61c.88,1,1.67,2,2.49,2.86a.78.78,0,0,1,.11,1c-.9,2.45-1.78,4.92-2.65,7.39-.08.22-.35.49-.12.72s.44,0,.66,0c2.54-.55,5.08-1.07,7.62-1.62a1,1,0,0,1,1.14.39c.72.88,1.49,1.72,2.3,2.66a19.81,19.81,0,0,1-3.29.77c-3.19.69-6.39,1.32-9.59,2a2.82,2.82,0,0,0-1.36.7c-1.28,1.17-2.62,2.26-3.9,3.42-.36.33-.55.3-.83,0-.62-.75-1.23-1.5-1.91-2.18-.38-.39-.27-.58.07-.88,1.34-1.14,2.65-2.31,4-3.43A2.72,2.72,0,0,0,262.1,84C263.56,79.93,265,75.82,266.55,71.61Z"/><path class="cls-1" d="M82.2,61.15l8.9-6.4c.94-.68,1.9-1.35,2.83-2,.34-.26.54-.23.77.11.52.74,1,1.49,1.59,2.2.28.35.19.52-.14.75-1.18.82-2.31,1.69-3.5,2.49-.53.35-.52.6-.17,1.09,2.65,3.64,5.26,7.3,7.91,10.94.36.5.34.73-.19,1a15.22,15.22,0,0,0-1.92,1.37c-.44.39-.62.27-.92-.15-2.63-3.69-5.29-7.35-7.91-11-.36-.51-.58-.57-1.07-.2-1.13.87-2.32,1.68-3.46,2.54-.4.3-.63.26-.91-.16C83.44,62.84,82.83,62,82.2,61.15Z"/><path class="cls-1" d="M151.62,50.5c.09.29-.12.4-.42.44l-2.76.46c-.4.06-.48-.12-.54-.48-.44-2.91-.92-5.82-1.38-8.73-.25-1.58-.49-3.17-.74-4.76-.08-.53-.18-.86-.93-.68-1.38.33-2.82.45-4.22.71-.47.08-.61,0-.67-.49-.11-.87-.28-1.73-.46-2.58-.12-.58.29-.63.65-.69l5.88-.93c2.45-.39,4.91-.74,7.34-1.18.76-.14,1,.08,1.06.78s.13,1.1.22,1.65c.22,1.37.4,1.08-1,1.35-1.23.24-2.48.4-3.72.57-.51.06-.56.24-.48.75.74,4.46,1.44,8.93,2.14,13.39A3.75,3.75,0,0,1,151.62,50.5Z"/><path class="cls-1" d="M75.38,94.42C73.77,87.13,72.22,80,70.63,72.9A1.34,1.34,0,0,1,71,71.49c.78-.78,1.52-1.61,2.35-2.5.47,2.09.93,4.07,1.37,6.06q1.73,7.85,3.45,15.71a.79.79,0,0,1-.12.8Z"/><path class="cls-1" d="M43.08,122c-.8-1.24-1.47-2.33-2.19-3.4a.75.75,0,0,1,0-.8c.44-1.08.93-2.14,1.32-3.24.19-.54.43-.5.84-.33q8.07,3.33,16.16,6.62c.49.2.54.37.33.83-.42.92-.78,1.88-1.17,2.82a17.41,17.41,0,0,1-2.74-1c-3.38-1.36-6.75-2.75-10.12-4.13-1.09-.45-1.08-.45-1.51.62C43.69,120.56,43.42,121.19,43.08,122Z"/><path class="cls-1" d="M197.68,53.39c-.85-.21-1.86-.47-2.89-.69-.44-.09-.47-.31-.38-.68q2.06-8.54,4.08-17.08c.12-.52.29-.65.82-.46.68.23,1.41.34,2.12.51,1.2.29,1.19.3.92,1.44q-2,8.24-3.94,16.48C198.33,53.23,198.35,53.59,197.68,53.39Z"/><path class="cls-1" d="M66.69,77.77a4.71,4.71,0,0,1,4.82,4.74,4.86,4.86,0,0,1-4.93,4.77,4.76,4.76,0,0,1,.11-9.51Zm1.39,4.72a1.3,1.3,0,0,0-1.37-1.37,1.43,1.43,0,0,0-1.43,1.45,1.49,1.49,0,0,0,1.35,1.37A1.46,1.46,0,0,0,68.08,82.49Z"/><path class="cls-1" d="M82,85.55A4.65,4.65,0,0,1,77.2,80.8,4.7,4.7,0,0,1,82,76a4.8,4.8,0,0,1,4.73,4.86A4.59,4.59,0,0,1,82,85.55Zm0-6.17a1.45,1.45,0,0,0-1.43,1.37A1.37,1.37,0,0,0,82,82.2a1.32,1.32,0,0,0,1.42-1.33A1.42,1.42,0,0,0,82,79.38Z"/><path class="cls-1" d="M287.93,91.54c-.25,1-.51,2.12-.79,3.22-.05.21-.2.24-.39.12a1.4,1.4,0,0,0-.4-.16c-.81-.17-1.1-.53-.91-1.44.3-1.42.21-1.44-1.31-1.84a1.6,1.6,0,0,1-.83-2c.14-.23.3-.1.45-.07l2.76.46A2.16,2.16,0,0,1,287.93,91.54Z"/><path class="cls-1" d="M121.74,37.32c-.53.43-1,.86-1.54,1.22-.35.25-.56-.14-.79-.3-.77-.52-1.51-1.1-2.28-1.62-.38-.25-.34-.41-.06-.72,1.42-1.54,1.41-1.55,3-.14l1.18,1C121.35,36.9,121.43,37,121.74,37.32Z"/><path class="cls-2" d="M192.4,83.56a22.44,22.44,0,0,0-6.41,2c-5,2.21-9.28,5.38-12.07,10.2a33.61,33.61,0,0,0-3.46,10.35A81,81,0,0,0,169,118.64c-.11,2.33-.07,4.67-.19,7a36.08,36.08,0,0,1-.78-5.26,82.91,82.91,0,0,1-.35-10.69A46.1,46.1,0,0,0,165.12,92,21.11,21.11,0,0,0,150.5,78.38a.81.81,0,0,0-.53,0c.89.43,1.81.84,2.69,1.3A19,19,0,0,1,160,86.1c.14.22.29.44.41.67.71,1.41.18,2.46-1.37,2.8a10.23,10.23,0,0,1-6.23-.95A13.17,13.17,0,0,1,145.12,81a15.5,15.5,0,0,0-5.73-6.83l-.45-.35a34.68,34.68,0,0,1,7.33-.56,25.13,25.13,0,0,1,7.9,1.45,19.21,19.21,0,0,1,10.44,9.42c.22.41.42.82.74,1.46a10.34,10.34,0,0,1,1.16-5.16c.13-.25.21-.64.52-.64s.43.37.57.61a7.83,7.83,0,0,1,.89,3.1,16.49,16.49,0,0,1,4.71-5.32c.39,3.83.15,7.43-1.65,10.81a24.27,24.27,0,0,1-3.31,4.63,1.22,1.22,0,0,0-.44,1,56.58,56.58,0,0,1,.58,8.13,57.58,57.58,0,0,1,1.7-6.44c3.17-9.3,9.4-15.11,19.24-16.72a42,42,0,0,1,12.76.18,5.71,5.71,0,0,1,.66.2c-3.13,1.24-4.66,3.77-5.56,6.74a23.22,23.22,0,0,1-4.1,8.19,15.79,15.79,0,0,1-8.74,5.83,7.91,7.91,0,0,1-3.32,0c-2.93-.61-5-3.5-3.12-6.89a17.52,17.52,0,0,1,5.27-5.57,33,33,0,0,1,8.57-4.37c.24-.09.47-.21.7-.32l.41-.08s0-.09-.08-.09A.32.32,0,0,0,192.4,83.56Z"/><path class="cls-2" d="M208.42,226.06c.1,1.55.1,1.55,1.55,1.55,3.05,0,6.09,0,9.14,0a5.17,5.17,0,0,1,1.79.39,2.08,2.08,0,0,1,1.47,2.22c.09,4.87-4.16,11.11-9.89,13.1a41.54,41.54,0,0,1-10.81,2.08c-.76,0-1.52.11-2.28.14a1,1,0,0,0-.69.31A44.08,44.08,0,0,1,186,253.75c.75.29,1.4.52,2,.81s1.12.5,1.05,1.14a2.07,2.07,0,0,1-.94,1.86,17.94,17.94,0,0,1-5.67,1.74,62.77,62.77,0,0,1-13.55.86,47.11,47.11,0,0,1-11.62-1.54c-1-.28-1.84-.72-2.76-1.09s-.92-1-1-1.68.44-1,.93-1.24,1.06-.46,1.71-.73c-1.19-.5-2.32-.93-3.42-1.43a34.37,34.37,0,0,1-15.61-13.29A24.88,24.88,0,0,1,133.29,226c2.26,2.79,5.45,3.53,8.58,4.32a88.1,88.1,0,0,0,14.63,2.15c3.48.28,6.95.42,10.43.56a135.88,135.88,0,0,0,14.13-.25,98.28,98.28,0,0,0,21.08-3.3,23.43,23.43,0,0,0,3.69-1.38A6.58,6.58,0,0,0,208.42,226.06Zm4.07,15a14.74,14.74,0,0,1-4.6.68c.94-.33,1.73-.57,2.47-.88,4.14-1.77,7.17-4.58,8.46-9,.32-1.07.09-1.36-1.07-1.36-3,0-6,0-9.05,0-.48,0-.7.12-.82.65a26.55,26.55,0,0,1-4.22,9.18c-.85,1.22-1.83,2.33-2.78,3.5a1.15,1.15,0,0,0,.9.17,35.28,35.28,0,0,0,3.82-.48,22.57,22.57,0,0,0,6.88-2.46c.18,0,.37-.05.45-.29A.36.36,0,0,0,212.49,241Zm9.4-11.28a3.93,3.93,0,0,0-3.44-1.56c-3.07,0-6.15,0-9.23,0h-.52a.31.31,0,0,0-.34.32c0,.25.18.23.37.23.82,0,1.64.09,2.45.1h7.12A6.29,6.29,0,0,1,221.89,229.75Z"/><path class="cls-2" d="M170.93,217.44c4-.06,8,.09,12,.38a91.88,91.88,0,0,1,19.37,3,16.55,16.55,0,0,1,4.27,1.8,5.32,5.32,0,0,1,.84.64,1.92,1.92,0,0,1-.1,3.21,15.49,15.49,0,0,1-5.9,2.6,81.74,81.74,0,0,1-13.63,2.32c-4.55.44-9.11.61-13.68.76-4.89.16-9.78,0-14.65-.31a91.49,91.49,0,0,1-19.06-2.75,18,18,0,0,1-5.28-2.11c-2.22-1.46-2.18-3.07.12-4.41a26.87,26.87,0,0,1,8.36-2.8A124.42,124.42,0,0,1,164,217.56C166.31,217.48,168.62,217.5,170.93,217.44Zm-32.28,9.38.7.3a50.71,50.71,0,0,0,11.28,2.45,122.89,122.89,0,0,0,12.85,1c5.1.14,10.2.16,15.29-.07a129.08,129.08,0,0,0,16.31-1.63,31.66,31.66,0,0,0,7.85-2.2,33.35,33.35,0,0,0-5.24-1.29,129,129,0,0,0-19.9-1.89c-6.14-.16-12.3-.15-18.44.25a121.84,121.84,0,0,0-15.49,1.8A42.27,42.27,0,0,0,138.65,226.82Z"/><path class="cls-2" d="M73.33,166.88c0-1.28,0-2.57,0-3.86,0-.34,0-.64.47-.62a55.9,55.9,0,0,1,5.79.16c2.4.36,3.65,1.87,3.63,4.44a3.82,3.82,0,0,1-3.62,4.22c-1.93.27-3.86.06-5.79.14-.5,0-.48-.27-.48-.61C73.33,169.46,73.33,168.17,73.33,166.88Z"/><path class="cls-2" d="M103.46,165.35c1.27,3.1,2.47,6,3.69,9H99.81C101,171.37,102.18,168.47,103.46,165.35Z"/><path class="cls-3" d="M192.4,83.56a.32.32,0,0,1,.37-.12s0,.06.08.09l-.41.08Z"/><path class="cls-3" d="M212.48,241a22.57,22.57,0,0,1-6.88,2.46,35.28,35.28,0,0,1-3.82.48,1.15,1.15,0,0,1-.9-.17c1-1.17,1.93-2.28,2.78-3.5a26.55,26.55,0,0,0,4.22-9.18c.12-.53.34-.65.82-.65,3,0,6,0,9.05,0,1.16,0,1.39.29,1.07,1.36-1.29,4.43-4.32,7.24-8.46,9-.74.31-1.53.55-2.47.88a14.74,14.74,0,0,0,4.6-.68Z"/><path class="cls-3" d="M221.89,229.75a6.29,6.29,0,0,0-3.59-.9h-7.12c-.81,0-1.63-.07-2.45-.1-.19,0-.37,0-.37-.23a.31.31,0,0,1,.34-.32h.52c3.08,0,6.16,0,9.23,0A3.93,3.93,0,0,1,221.89,229.75Z"/><path class="cls-3" d="M212.49,241a.36.36,0,0,1,.44-.3c-.08.24-.27.27-.45.29Z"/><path class="cls-3" d="M138.65,226.82a42.27,42.27,0,0,1,5.21-1.27,121.84,121.84,0,0,1,15.49-1.8c6.14-.4,12.3-.41,18.44-.25a129,129,0,0,1,19.9,1.89,33.35,33.35,0,0,1,5.24,1.29,31.66,31.66,0,0,1-7.85,2.2,129.08,129.08,0,0,1-16.31,1.63c-5.09.23-10.19.21-15.29.07a122.89,122.89,0,0,1-12.85-1,50.71,50.71,0,0,1-11.28-2.45Z"/></svg>